<svg width="249" height="52" viewBox="0 0 249 52" fill="none" xmlns="http://www.w3.org/2000/svg">
<path fill-rule="evenodd" clip-rule="evenodd" d="M21.9286 0C9.81776 0 0 9.81792 0 21.9289C0 34.0399 9.81776 43.8579 21.9286 43.8579H26.3143C27.524 43.8544 28.5037 42.8744 28.5068 41.6646V38.3444H21.9279C18.8075 38.348 15.7509 37.4606 13.1174 35.7867C12.7868 35.5766 12.5933 35.206 12.61 34.8145C12.6267 34.4231 12.8509 34.0703 13.1982 33.889C13.5455 33.7077 13.9632 33.7255 14.2938 33.9357C16.5756 35.3861 19.2242 36.1547 21.9279 36.1512H28.5068V32.8917C28.503 31.6825 27.5235 30.7033 26.3143 30.6998H21.9286C17.0843 30.6998 13.1572 26.7726 13.1572 21.9282C13.1572 17.0838 17.0843 13.1567 21.9286 13.1567C26.7729 13.1567 30.7 17.0838 30.7 21.9282V41.6639C30.7031 42.874 31.6832 43.8541 32.8932 43.8572H41.6626C42.873 43.8537 43.8537 42.8737 43.8579 41.6632V21.9296C43.8579 9.81823 34.0398 0 21.9286 0ZM31.0527 9.50614C30.7366 10.0034 30.0774 10.1503 29.5801 9.83439C23.9325 6.25549 16.5582 7.07209 11.8304 11.7999C7.10264 16.5278 6.28605 23.9022 9.8649 29.5499C10.0787 29.8715 10.102 30.2836 9.92564 30.6272C9.74931 30.9708 9.40097 31.1922 9.01502 31.2059C8.62906 31.2197 8.26583 31.0237 8.06545 30.6935C3.95025 24.2029 4.88789 15.726 10.3222 10.2917C15.7564 4.85731 24.2331 3.91965 30.7237 8.03492C31.2201 8.35092 31.3669 9.00911 31.052 9.50614H31.0527ZM37.2786 38.3455C37.8842 38.3455 38.3752 37.8545 38.3752 37.2489V21.8969C38.3788 18.7764 37.4914 15.7198 35.8175 13.0863C35.6074 12.7556 35.2368 12.5622 34.8454 12.5789C34.4539 12.5955 34.1011 12.8197 33.9198 13.1671C33.7386 13.5144 33.7563 13.932 33.9665 14.2627C35.4169 16.5445 36.1855 19.1931 36.182 21.8969V37.2489C36.182 37.8545 36.673 38.3455 37.2786 38.3455Z" fill="white"/>
<path d="M59.714 32.982C59.714 41.906 65.556 46.322 73.054 46.322C80.506 46.322 86.762 41.906 86.762 32.982V13.708H78.896V33.028C78.896 36.846 76.918 39.054 73.192 39.054C69.466 39.054 67.58 36.846 67.58 33.028V13.708H59.714V32.982ZM100.152 28.152V20.056H104.43C107.558 20.056 108.892 21.62 108.892 24.104C108.892 26.588 107.558 28.152 104.43 28.152H100.152ZM116.896 24.104C116.896 18.17 112.94 13.708 105.028 13.708H92.2856V46H100.152V34.408H105.028C113.262 34.408 116.896 29.44 116.896 24.104ZM127.707 29.762C127.707 24.012 131.019 20.378 136.263 20.378C141.415 20.378 144.773 24.012 144.773 29.762C144.773 35.42 141.415 39.146 136.263 39.146C131.019 39.146 127.707 35.42 127.707 29.762ZM152.777 29.762C152.777 20.056 145.463 13.248 136.263 13.248C127.109 13.248 119.657 20.056 119.657 29.762C119.657 39.468 127.109 46.322 136.263 46.322C137.505 46.322 138.701 46.184 139.851 45.954L143.991 51.52H153.513L146.429 43.01C150.293 40.066 152.777 35.42 152.777 29.762ZM189.029 29.762C189.029 20.056 181.715 13.248 172.515 13.248C163.361 13.248 155.909 20.056 155.909 29.762C155.909 39.468 163.361 46.322 172.515 46.322C181.669 46.322 189.029 39.468 189.029 29.762ZM163.959 29.762C163.959 24.012 167.271 20.378 172.515 20.378C177.667 20.378 181.025 24.012 181.025 29.762C181.025 35.42 177.667 39.146 172.515 39.146C167.271 39.146 163.959 35.42 163.959 29.762ZM205.503 13.708H193.405V46H205.503C215.807 46 222.431 39.422 222.431 29.854C222.431 20.24 215.807 13.708 205.503 13.708ZM201.271 39.192V20.424H204.997C210.931 20.424 214.427 23.92 214.427 29.854C214.427 35.788 210.931 39.192 204.997 39.192H201.271ZM246.607 13.708H226.827V46H246.607V39.698H234.693V32.614H245.227V26.542H234.693V20.01H246.607V13.708Z" fill="white"/>
</svg>
